<?xml version="1.0" encoding="UTF-8"?>
<svg width="24px" height="24px" viewBox="0 0 512 512" version="1.1" xmlns="http://www.w3.org/2000/svg" xmlns:xlink="http://www.w3.org/1999/xlink">
    <title>Group</title>
    <g id="Page-2" stroke="none" stroke-width="1" fill="none" fill-rule="evenodd">
        <g id="Group" fill="#000000">
            <text id="64" font-family="Futura-Medium, Futura" font-size="200" font-weight="400">
                <tspan x="27.4414062" y="243">64</tspan>
            </text>
            <g id="image" fill-rule="nonzero">
                <path d="M446.575,0 L65.425,0 C29.349,0 0,29.35 0,65.426 L0,446.575 C0,482.65 29.349,512 65.425,512 L446.575,512 C482.651,512 512,482.65 512,446.574 L512,65.426 C512,29.35 482.651,0 446.575,0 Z M481.843,446.575 C481.843,466.022 466.021,481.842 446.575,481.842 L65.425,481.842 C45.978,481.842 30.157,466.021 30.157,446.575 L30.157,391.568 L129.412,307.117 C133.034,304.035 138.318,304.006 141.974,307.042 L204.148,358.67 C210.143,363.647 218.943,363.239 224.452,357.724 L372.181,209.77 C374.851,207.095 377.964,206.835 379.589,206.918 C381.209,207.001 384.284,207.579 386.667,210.514 L481.843,327.704 L481.843,446.575 L481.843,446.575 Z M481.842,279.865 L410.076,191.499 C402.959,182.735 392.41,177.377 381.134,176.798 C369.866,176.228 358.817,180.47 350.84,188.46 L212.832,326.681 L161.242,283.842 C146.283,271.42 124.679,271.549 109.869,284.15 L30.157,351.972 L30.157,65.426 C30.157,45.979 45.978,30.158 65.425,30.158 L446.575,30.158 C466.022,30.158 481.842,45.979 481.842,65.426 L481.842,279.865 Z" id="Shape"></path>
            </g>
        </g>
    </g>
</svg>
