<?xml version="1.0" encoding="UTF-8"?>
<svg xmlns="http://www.w3.org/2000/svg" width="24px" height="24px" viewBox="0 0 32 32">
    <g id="convert">
        <path d="M14.738,5.9h0c-.015-.017-.031-.033-.048-.049l-4.8-4.568A.994.994,0,0,0,9.239,1c-.015,0-.033,0-.046,0H3.2A2.174,2.174,0,0,0,1,3.143V16.857A2.174,2.174,0,0,0,3.2,19h9.6A2.174,2.174,0,0,0,15,16.857V6.571a1,1,0,0,0-.262-.675ZM10.2,4.333l1.3,1.238H10.4c-.1,0-.157-.011-.18-.011h-.006a.5.5,0,0,1-.014-.132ZM13,16.857c0,.066-.087.143-.2.143H3.2c-.113,0-.2-.077-.2-.143V3.143C3,3.077,3.087,3,3.2,3h5V5.429a2.035,2.035,0,0,0,2.2,2.142H13Z"/>
        <path d="M29,13H19.2A2.174,2.174,0,0,0,17,15.143V28.857A2.174,2.174,0,0,0,19.2,31h9.6A2.174,2.174,0,0,0,31,28.857V15A2,2,0,0,0,29,13Zm0,15.857c0,.066-.087.143-.2.143H19.2c-.113,0-.2-.077-.2-.143V15.143c0-.066.087-.143.2-.143H29Z"/>
        <path d="M21,19h6a1,1,0,0,0,0-2H21a1,1,0,0,0,0,2Z"/>
        <path d="M21,22h6a1,1,0,0,0,0-2H21a1,1,0,0,0,0,2Z"/>
        <path d="M14,26H10a1,1,0,0,1-1-1V23.414l.293.293a1,1,0,0,0,1.414-1.414l-2-2a1,1,0,0,0-1.414,0l-2,2a1,1,0,0,0,1.414,1.414L7,23.414V25a3,3,0,0,0,3,3h4a1,1,0,0,0,0-2Z"/>
        <path d="M18,6h4a1,1,0,0,1,1,1V8.586l-.293-.293a1,1,0,0,0-1.414,1.414l2,2a1,1,0,0,0,.325.216.986.986,0,0,0,.764,0,1,1,0,0,0,.325-.216l2-2a1,1,0,0,0-1.414-1.414L25,8.586V7a3,3,0,0,0-3-3H18a1,1,0,0,0,0,2Z"/>
    </g>
</svg>
