<?xml version="1.0" standalone="no"?>
<!DOCTYPE svg PUBLIC "-//W3C//DTD SVG 20010904//EN"
 "http://www.w3.org/TR/2001/REC-SVG-20010904/DTD/svg10.dtd">
<svg version="1.0" xmlns="http://www.w3.org/2000/svg"
 width="492.000000pt" height="392.000000pt" viewBox="0 0 492.000000 392.000000"
 preserveAspectRatio="xMidYMid meet">

<g transform="translate(0.000000,392.000000) scale(0.100000,-0.100000)"
fill="#000000" stroke="none">
<path d="M1670 3807 c-52 -57 -449 -482 -882 -945 l-788 -842 0 -79 0 -80 896
-926 c735 -760 899 -924 909 -913 7 7 69 91 139 187 l126 173 -93 97 c-50 54
-335 348 -632 655 -297 306 -541 561 -543 567 -2 5 611 9 1648 9 1033 0 1650
-4 1648 -9 -1 -6 -259 -279 -573 -607 -313 -329 -600 -630 -638 -670 l-67 -72
146 -171 c80 -94 147 -171 150 -171 2 0 408 416 904 925 l900 926 0 80 0 80
-886 942 c-487 518 -891 943 -898 944 -6 1 -78 -70 -159 -158 l-149 -159 299
-327 c164 -180 450 -494 636 -697 l338 -371 -825 -3 c-453 -1 -1199 -1 -1656
0 l-831 3 382 415 c210 228 503 546 651 707 l269 292 -152 148 c-83 81 -156
149 -162 150 -7 2 -55 -44 -107 -100z"/>
</g>
</svg>
