<svg id="Capa_1" enable-background="new 0 0 510 510" height="24px" viewBox="0 0 510 510" width="512"
     xmlns="http://www.w3.org/2000/svg">
    <g>
        <path d="m145 230c0-24.813-20.187-45-45-45s-45 20.187-45 45v30c0 24.813 20.187 45 45 45s45-20.187 45-45zm-30 30c0 8.271-6.729 15-15 15s-15-6.729-15-15v-30c0-8.271 6.729-15 15-15s15 6.729 15 15z"/>
        <path d="m200 225.576v79.424h30v-120h-24.807l-38.912 27.794 17.438 24.412z"/>
        <path d="m381.281 212.794 17.438 24.412 16.281-11.63v79.424h30v-120h-24.807z"/>
        <path d="m305 185c-24.813 0-45 20.187-45 45v30c0 24.813 20.187 45 45 45s45-20.187 45-45v-30c0-24.813-20.187-45-45-45zm15 75c0 8.271-6.729 15-15 15s-15-6.729-15-15v-30c0-8.271 6.729-15 15-15s15 6.729 15 15z"/>
        <path d="m51.281 352.794 17.438 24.412 16.281-11.63v79.424h30v-120h-24.807z"/>
        <path d="m190 325c-24.813 0-45 20.187-45 45v30c0 24.813 20.187 45 45 45s45-20.187 45-45v-30c0-24.813-20.187-45-45-45zm15 75c0 8.271-6.729 15-15 15s-15-6.729-15-15v-30c0-8.271 6.729-15 15-15s15 6.729 15 15z"/>
        <path d="m261.281 352.794 17.438 24.412 16.281-11.63v79.424h30v-120h-24.807z"/>
        <path d="m400 325c-24.813 0-45 20.187-45 45v30c0 24.813 20.187 45 45 45s45-20.187 45-45v-30c0-24.813-20.187-45-45-45zm15 75c0 8.271-6.729 15-15 15s-15-6.729-15-15v-30c0-8.271 6.729-15 15-15s15 6.729 15 15z"/>
        <path d="m0 5v500h510v-500zm480 30v90h-450v-90zm-450 440v-320h450v320z"/>
        <path d="m60 65h30v30h-30z"/>
        <path d="m120 65h30v30h-30z"/>
        <path d="m180 65h30v30h-30z"/>
    </g>
</svg>
