<?xml version="1.0" encoding="UTF-8" standalone="no"?>
<svg
   version="1.1"
   id="svg3555"
   xml:space="preserve"
   width="24px"
   height="24px"
   viewBox="0 0 682.66669 682.66669"
   xmlns="http://www.w3.org/2000/svg"
   xmlns:svg="http://www.w3.org/2000/svg"><defs
     id="defs3559"><clipPath
       clipPathUnits="userSpaceOnUse"
       id="clipPath3569"><path
         d="M 0,512 H 512 V 0 H 0 Z"
         id="path3567" /></clipPath><clipPath
       clipPathUnits="userSpaceOnUse"
       id="clipPath3657"><path
         d="M 0,512 H 512 V 0 H 0 Z"
         id="path3655" /></clipPath></defs><g
     id="g3561"
     transform="matrix(1.3333333,0,0,-1.3333333,0,682.66667)"><g
       id="g3563"><g
         id="g3565"
         clip-path="url(#clipPath3569)"><g
           id="g3571"
           transform="translate(102.3652,102.3652)"><path
             d="M 0,0 -91.091,-91.091"
             style="fill:none;stroke:#000000;stroke-width:15;stroke-linecap:round;stroke-linejoin:round;stroke-miterlimit:10;stroke-dasharray:none;stroke-opacity:1"
             id="path3573" /></g></g></g><g
       id="g3575"
       transform="translate(65.667,447.667)"><path
         d="M 0,0 H 32.924"
         style="fill:none;stroke:#000000;stroke-width:15;stroke-linecap:round;stroke-linejoin:round;stroke-miterlimit:10;stroke-dasharray:none;stroke-opacity:1"
         id="path3577" /></g><g
       id="g3579"
       transform="translate(75.5,399.875)"><path
         d="M 0,0 H 23.091"
         style="fill:none;stroke:#000000;stroke-width:15;stroke-linecap:round;stroke-linejoin:round;stroke-miterlimit:10;stroke-dasharray:none;stroke-opacity:1"
         id="path3581" /></g><g
       id="g3583"
       transform="translate(65.667,352.084)"><path
         d="M 0,0 H 32.924"
         style="fill:none;stroke:#000000;stroke-width:15;stroke-linecap:round;stroke-linejoin:round;stroke-miterlimit:10;stroke-dasharray:none;stroke-opacity:1"
         id="path3585" /></g><g
       id="g3587"
       transform="translate(75.5,304.292)"><path
         d="M 0,0 H 23.091"
         style="fill:none;stroke:#000000;stroke-width:15;stroke-linecap:round;stroke-linejoin:round;stroke-miterlimit:10;stroke-dasharray:none;stroke-opacity:1"
         id="path3589" /></g><g
       id="g3591"
       transform="translate(65.667,256.501)"><path
         d="M 0,0 H 32.924"
         style="fill:none;stroke:#000000;stroke-width:15;stroke-linecap:round;stroke-linejoin:round;stroke-miterlimit:10;stroke-dasharray:none;stroke-opacity:1"
         id="path3593" /></g><g
       id="g3595"
       transform="translate(75.5,208.709)"><path
         d="M 0,0 H 23.091"
         style="fill:none;stroke:#000000;stroke-width:15;stroke-linecap:round;stroke-linejoin:round;stroke-miterlimit:10;stroke-dasharray:none;stroke-opacity:1"
         id="path3597" /></g><g
       id="g3599"
       transform="translate(65.667,160.917)"><path
         d="M 0,0 H 32.924"
         style="fill:none;stroke:#000000;stroke-width:15;stroke-linecap:round;stroke-linejoin:round;stroke-miterlimit:10;stroke-dasharray:none;stroke-opacity:1"
         id="path3601" /></g><g
       id="g3603"
       transform="translate(156.1553,65.6514)"><path
         d="M 0,0 V 32.924"
         style="fill:none;stroke:#000000;stroke-width:15;stroke-linecap:round;stroke-linejoin:round;stroke-miterlimit:10;stroke-dasharray:none;stroke-opacity:1"
         id="path3605" /></g><g
       id="g3607"
       transform="translate(203.9473,75.4844)"><path
         d="M 0,0 V 23.091"
         style="fill:none;stroke:#000000;stroke-width:15;stroke-linecap:round;stroke-linejoin:round;stroke-miterlimit:10;stroke-dasharray:none;stroke-opacity:1"
         id="path3609" /></g><g
       id="g3611"
       transform="translate(251.7383,65.6514)"><path
         d="M 0,0 V 32.924"
         style="fill:none;stroke:#000000;stroke-width:15;stroke-linecap:round;stroke-linejoin:round;stroke-miterlimit:10;stroke-dasharray:none;stroke-opacity:1"
         id="path3613" /></g><g
       id="g3615"
       transform="translate(299.5303,75.4844)"><path
         d="M 0,0 V 23.091"
         style="fill:none;stroke:#000000;stroke-width:15;stroke-linecap:round;stroke-linejoin:round;stroke-miterlimit:10;stroke-dasharray:none;stroke-opacity:1"
         id="path3617" /></g><g
       id="g3619"
       transform="translate(347.3213,65.6514)"><path
         d="M 0,0 V 32.924"
         style="fill:none;stroke:#000000;stroke-width:15;stroke-linecap:round;stroke-linejoin:round;stroke-miterlimit:10;stroke-dasharray:none;stroke-opacity:1"
         id="path3621" /></g><g
       id="g3623"
       transform="translate(395.1133,75.4844)"><path
         d="M 0,0 V 23.091"
         style="fill:none;stroke:#000000;stroke-width:15;stroke-linecap:round;stroke-linejoin:round;stroke-miterlimit:10;stroke-dasharray:none;stroke-opacity:1"
         id="path3625" /></g><g
       id="g3627"
       transform="translate(442.9043,65.6514)"><path
         d="M 0,0 V 32.924"
         style="fill:none;stroke:#000000;stroke-width:15;stroke-linecap:round;stroke-linejoin:round;stroke-miterlimit:10;stroke-dasharray:none;stroke-opacity:1"
         id="path3629" /></g><g
       id="g3631"
       transform="translate(309.5303,299.3262)"><path
         d="M 0,0 V -114.02"
         style="fill:none;stroke:#000000;stroke-width:15;stroke-linecap:round;stroke-linejoin:round;stroke-miterlimit:10;stroke-dasharray:none;stroke-opacity:1"
         id="path3633" /></g><g
       id="g3635"
       transform="translate(191.8271,443.1709)"><path
         d="M 0,0 H -26.141 V -26.316"
         style="fill:none;stroke:#000000;stroke-width:15;stroke-linecap:round;stroke-linejoin:round;stroke-miterlimit:10;stroke-dasharray:none;stroke-opacity:1"
         id="path3637" /></g><g
       id="g3639"
       transform="translate(453.374,416.8545)"><path
         d="M 0,0 V 26.316 H -25.796"
         style="fill:none;stroke:#000000;stroke-width:15;stroke-linecap:round;stroke-linejoin:round;stroke-miterlimit:10;stroke-dasharray:none;stroke-opacity:1"
         id="path3641" /></g><g
       id="g3643"
       transform="translate(427.5781,155.4824)"><path
         d="M 0,0 H 25.796 V 25.622"
         style="fill:none;stroke:#000000;stroke-width:15;stroke-linecap:round;stroke-linejoin:round;stroke-miterlimit:10;stroke-dasharray:none;stroke-opacity:1"
         id="path3645" /></g><g
       id="g3647"
       transform="translate(165.6865,181.1045)"><path
         d="M 0,0 V -25.622 H 26.141"
         style="fill:none;stroke:#000000;stroke-width:15;stroke-linecap:round;stroke-linejoin:round;stroke-miterlimit:10;stroke-dasharray:none;stroke-opacity:1"
         id="path3649" /></g><g
       id="g3651"><g
         id="g3653"
         clip-path="url(#clipPath3657)"><g
           id="g3659"
           transform="translate(7.5,334.5527)"><path
             d="m 0,0 v -314.165 c 0,-7.117 5.771,-12.888 12.888,-12.888 h 471.224 c 7.117,0 12.888,5.771 12.888,12.888 v 65.314 c 0,7.119 -5.771,12.889 -12.888,12.889 H 103.979 c -7.119,0 -12.888,5.77 -12.888,12.888 V 157.06 c 0,7.117 -5.771,12.887 -12.889,12.887 H 12.888 C 5.771,169.947 0,164.177 0,157.06 V 35.063"
             style="fill:none;stroke:#000000;stroke-width:15;stroke-linecap:round;stroke-linejoin:round;stroke-miterlimit:10;stroke-dasharray:none;stroke-opacity:1"
             id="path3661" /></g><g
           id="g3663"
           transform="translate(410.4365,249.7646)"><path
             d="m 0,0 v 99.124 c 0,5.381 -2.87,10.355 -7.531,13.045 l -85.844,49.561 c -4.66,2.692 -10.402,2.692 -15.063,0 l -85.843,-49.561 c -4.661,-2.69 -7.532,-7.664 -7.532,-13.045 V 0 c 0,-5.382 2.871,-10.354 7.532,-13.045 l 85.843,-49.561 c 4.661,-2.692 10.403,-2.692 15.063,0 l 85.844,49.561 C -2.87,-10.354 0,-5.382 0,0 Z"
             style="fill:none;stroke:#000000;stroke-width:15;stroke-linecap:round;stroke-linejoin:round;stroke-miterlimit:10;stroke-dasharray:none;stroke-opacity:1"
             id="path3665" /></g><g
           id="g3667"
           transform="translate(370.9014,334.7598)"><path
             d="M 0,0 37.518,21.66"
             style="fill:none;stroke:#000000;stroke-width:15;stroke-linecap:round;stroke-linejoin:round;stroke-miterlimit:10;stroke-dasharray:none;stroke-opacity:1"
             id="path3669" /></g><g
           id="g3671"
           transform="translate(210.6416,356.4199)"><path
             d="m 0,0 98.889,-57.093 30.486,17.601"
             style="fill:none;stroke:#000000;stroke-width:15;stroke-linecap:round;stroke-linejoin:round;stroke-miterlimit:10;stroke-dasharray:none;stroke-opacity:1"
             id="path3673" /></g></g></g></g></svg>
