<svg id="Layer_1" enable-background="new 0 0 64 64" height="24px" viewBox="0 0 64 64" width="512"
     xmlns="http://www.w3.org/2000/svg">
    <g>
        <path d="m1 17.5h1v32c0 1.336.521 2.592 1.465 3.535.944.945 2.2 1.465 3.535 1.465h1.18l.678 3.394c.188.931 1.013 1.606 1.962 1.606h6.36c.949 0 1.773-.675 1.962-1.608l.678-3.392h27.156c1.486 2.929 4.521 4.945 8.024 4.945 4.962 0 9-4.038 9-9 0-3.525-2.042-6.574-5-8.05v-24.895h1c.552 0 1-.448 1-1v-4c0-1.654-1.346-3-3-3h-3v-3c0-1.103-.897-2-2-2h-8c-1.103 0-2 .897-2 2v3h-26c-.552 0-1 .448-1 1s.448 1 1 1h41c.551 0 1 .449 1 1v3h-57v-3c0-.551.449-1 1-1h6c.552 0 1-.448 1-1s-.448-1-1-1h-6c-1.654 0-3 1.346-3 3v4c0 .552.448 1 1 1zm44-11h8v3h-8zm-27.82 51-6.36.001-.6-3.001h7.561zm44.82-7.055c0 3.86-3.14 7-7 7s-7-3.14-7-7 3.14-7 7-7 7 3.14 7 7zm-5-17.945h-3c-.552 0-1 .448-1 1s.448 1 1 1h3v7.177c-.644-.147-1.312-.232-2-.232-4.962 0-9 4.038-9 9 0 .708.091 1.393.246 2.055h-39.246c-.801 0-1.554-.312-2.122-.879-.566-.566-.878-1.319-.878-2.121v-15h4.649l-.523.942c-.172.31-.167.688.012.993.18.305.507.493.862.493h5.071v5.072c0 .446.295.838.724.961.091.026.184.039.276.039.338 0 .662-.172.848-.47l5.02-8.03h25.061c.552 0 1-.448 1-1s-.448-1-1-1h-23.887c.051-.234.025-.482-.095-.699-.176-.318-.511-.515-.875-.515h-5.072v-6.286c0-.456-.308-.854-.749-.968-.442-.115-.904.084-1.125.482l-4.437 7.986h-5.76v-15h53zm-41.929.786h4.268l-3.268 5.228v-2.585c0-.552-.448-1-1-1h-4.372l3.372-6.069v3.427c0 .551.448.999 1 .999z"/>
        <path d="m51.055 50.445c0 2.175 1.77 3.945 3.945 3.945s3.945-1.77 3.945-3.945-1.77-3.945-3.945-3.945-3.945 1.77-3.945 3.945zm5.89 0c0 1.072-.873 1.945-1.945 1.945s-1.945-.873-1.945-1.945c0-1.073.873-1.945 1.945-1.945s1.945.873 1.945 1.945z"/>
        <path d="m19 27.5h16c.552 0 1-.448 1-1v-6c0-.552-.448-1-1-1h-16c-.552 0-1 .448-1 1v6c0 .552.448 1 1 1zm1-6h14v4h-14z"/>
        <path d="m33 38.5h-12c-.552 0-1 .448-1 1s.448 1 1 1h12c.552 0 1-.448 1-1s-.448-1-1-1z"/>
        <path d="m33 42.5h-12c-.552 0-1 .448-1 1s.448 1 1 1h12c.552 0 1-.448 1-1s-.448-1-1-1z"/>
        <path d="m33 46.5h-12c-.552 0-1 .448-1 1s.448 1 1 1h12c.552 0 1-.448 1-1s-.448-1-1-1z"/>
        <path d="m43 26.5c1.654 0 3-1.346 3-3s-1.346-3-3-3-3 1.346-3 3 1.346 3 3 3zm0-4c.551 0 1 .449 1 1s-.449 1-1 1-1-.449-1-1 .449-1 1-1z"/>
        <path d="m51 26.5c1.654 0 3-1.346 3-3s-1.346-3-3-3-3 1.346-3 3 1.346 3 3 3zm0-4c.551 0 1 .449 1 1s-.449 1-1 1-1-.449-1-1 .449-1 1-1z"/>
        <circle cx="50" cy="33.5" r="1"/>
        <circle cx="13" cy="10.5" r="1"/>
    </g>
</svg>
